<?xml version="1.0" encoding="UTF-8"?><svg xmlns="http://www.w3.org/2000/svg" xmlns:xlink="http://www.w3.org/1999/xlink" height="499.3" preserveAspectRatio="xMidYMid meet" version="1.0" viewBox="0.0 0.0 499.3 499.3" width="499.3" zoomAndPan="magnify"><g fill="#7daa7b" id="change1_1"><path d="M 143.503906 472.320312 C 143.539062 472.335938 143.570312 472.351562 143.605469 472.367188 C 162.183594 481.230469 181.855469 487.730469 202.078125 491.675781 C 217.609375 494.71875 233.609375 496.261719 249.628906 496.261719 C 258.746094 496.261719 267.882812 495.761719 276.785156 494.777344 C 332.167969 488.710938 384.457031 463.582031 424.019531 424.019531 C 463.582031 384.457031 488.710938 332.167969 494.777344 276.785156 C 495.761719 267.882812 496.261719 258.746094 496.261719 249.628906 C 496.261719 233.609375 494.71875 217.609375 491.679688 202.078125 C 491.679688 202.078125 491.679688 202.078125 491.675781 202.078125 C 487.730469 181.859375 481.234375 162.183594 472.367188 143.597656 C 464.285156 126.636719 454.199219 110.542969 442.398438 95.765625 C 430.925781 81.425781 417.835938 68.335938 403.492188 56.859375 C 388.714844 45.058594 372.625 34.976562 355.664062 26.894531 C 337.074219 18.027344 317.398438 11.527344 297.183594 7.582031 C 281.648438 4.542969 265.648438 3 249.628906 3 C 240.515625 3 231.378906 3.496094 222.476562 4.480469 C 167.089844 10.546875 114.800781 35.675781 75.238281 75.238281 C 35.675781 114.800781 10.546875 167.089844 4.480469 222.472656 C 3.5 231.378906 3 240.515625 3 249.628906 C 3 265.648438 4.542969 281.648438 7.582031 297.183594 C 11.527344 317.398438 18.027344 337.074219 26.894531 355.664062 C 34.976562 372.625 45.058594 388.714844 56.863281 403.492188 C 68.335938 417.835938 81.425781 430.925781 95.765625 442.398438 C 110.515625 454.179688 126.578125 464.246094 143.503906 472.320312 Z M 249.628906 499.261719 C 233.417969 499.261719 217.222656 497.699219 201.503906 494.621094 C 181.066406 490.632812 161.183594 484.070312 142.40625 475.117188 C 142.371094 475.105469 142.339844 475.089844 142.304688 475.074219 C 125.136719 466.894531 108.851562 456.6875 93.894531 444.742188 C 79.378906 433.128906 66.128906 419.882812 54.519531 405.367188 C 42.570312 390.410156 32.363281 374.121094 24.1875 356.953125 C 15.210938 338.136719 8.632812 318.21875 4.636719 297.757812 C 1.5625 282.035156 0 265.84375 0 249.628906 C 0 240.40625 0.503906 231.160156 1.5 222.144531 C 7.640625 166.089844 33.074219 113.160156 73.117188 73.117188 C 113.160156 33.074219 166.089844 7.640625 222.148438 1.5 C 231.160156 0.503906 240.40625 0 249.628906 0 C 265.84375 0 282.035156 1.558594 297.757812 4.636719 C 318.21875 8.632812 338.136719 15.210938 356.953125 24.1875 C 374.121094 32.363281 390.410156 42.570312 405.367188 54.519531 C 419.882812 66.128906 433.128906 79.378906 444.742188 93.894531 C 456.6875 108.851562 466.894531 125.136719 475.074219 142.304688 C 484.050781 161.121094 490.628906 181.039062 494.621094 201.503906 C 497.699219 217.222656 499.261719 233.417969 499.261719 249.628906 C 499.261719 258.855469 498.753906 268.101562 497.761719 277.113281 C 491.621094 333.171875 466.1875 386.097656 426.140625 426.140625 C 386.097656 466.1875 333.171875 491.621094 277.113281 497.761719 C 268.101562 498.753906 258.855469 499.261719 249.628906 499.261719" fill="inherit"/><path d="M 447.339844 327.378906 C 446.957031 327.378906 446.570312 327.234375 446.277344 326.941406 C 445.691406 326.355469 445.691406 325.40625 446.277344 324.820312 L 495.210938 275.890625 C 495.796875 275.304688 496.742188 275.304688 497.328125 275.890625 C 497.914062 276.476562 497.914062 277.425781 497.328125 278.011719 L 448.398438 326.941406 C 448.105469 327.234375 447.722656 327.378906 447.339844 327.378906" fill="inherit"/><path d="M 430.898438 265.539062 C 430.515625 265.539062 430.132812 265.394531 429.839844 265.101562 C 429.253906 264.515625 429.253906 263.566406 429.839844 262.980469 L 492.089844 200.730469 C 492.675781 200.144531 493.625 200.144531 494.210938 200.730469 C 494.796875 201.316406 494.796875 202.265625 494.210938 202.851562 L 431.960938 265.101562 C 431.667969 265.394531 431.28125 265.539062 430.898438 265.539062" fill="inherit"/><path d="M 427.738281 190.429688 C 427.355469 190.429688 426.972656 190.28125 426.679688 189.988281 C 426.09375 189.40625 426.09375 188.453125 426.679688 187.867188 L 472.660156 141.890625 C 473.246094 141.304688 474.195312 141.304688 474.78125 141.890625 C 475.367188 142.476562 475.367188 143.425781 474.78125 144.011719 L 428.800781 189.988281 C 428.507812 190.28125 428.125 190.429688 427.738281 190.429688" fill="inherit"/><path d="M 371.878906 168.019531 C 371.496094 168.019531 371.113281 167.875 370.820312 167.582031 C 370.234375 166.996094 370.234375 166.046875 370.820312 165.460938 L 442.511719 93.769531 C 443.097656 93.183594 444.046875 93.183594 444.632812 93.769531 C 445.21875 94.355469 445.21875 95.304688 444.632812 95.890625 L 372.941406 167.582031 C 372.648438 167.875 372.265625 168.019531 371.878906 168.019531" fill="inherit"/><path d="M 410.949219 363.769531 C 410.566406 363.769531 410.183594 363.621094 409.890625 363.328125 C 409.304688 362.742188 409.304688 361.796875 409.890625 361.210938 L 432.820312 338.277344 C 433.40625 337.691406 434.355469 337.691406 434.941406 338.277344 C 435.527344 338.863281 435.527344 339.8125 434.941406 340.398438 L 412.011719 363.328125 C 411.71875 363.621094 411.335938 363.769531 410.949219 363.769531" fill="inherit"/><path d="M 405.6875 212.480469 C 405.304688 212.480469 404.921875 212.332031 404.628906 212.039062 C 404.042969 211.453125 404.042969 210.503906 404.628906 209.917969 L 414.9375 199.609375 C 415.523438 199.023438 416.476562 199.023438 417.0625 199.609375 C 417.644531 200.195312 417.644531 201.144531 417.0625 201.730469 L 406.75 212.039062 C 406.457031 212.332031 406.074219 212.480469 405.6875 212.480469" fill="inherit"/><path d="M 399.9375 296.5 C 399.554688 296.5 399.171875 296.355469 398.878906 296.0625 C 398.292969 295.476562 398.292969 294.523438 398.878906 293.9375 L 403.96875 288.851562 C 404.554688 288.265625 405.503906 288.265625 406.089844 288.851562 C 406.675781 289.4375 406.675781 290.386719 406.089844 290.972656 L 401 296.0625 C 400.707031 296.355469 400.324219 296.5 399.9375 296.5" fill="inherit"/><path d="M 394.730469 66.890625 C 394.347656 66.890625 393.960938 66.742188 393.667969 66.449219 C 393.082031 65.863281 393.082031 64.914062 393.667969 64.328125 L 403.367188 54.628906 C 403.953125 54.042969 404.902344 54.042969 405.488281 54.628906 C 406.074219 55.214844 406.074219 56.164062 405.488281 56.75 L 395.789062 66.449219 C 395.496094 66.742188 395.113281 66.890625 394.730469 66.890625" fill="inherit"/><path d="M 387.980469 308.460938 C 387.597656 308.460938 387.210938 308.3125 386.917969 308.019531 C 386.332031 307.433594 386.332031 306.484375 386.917969 305.898438 L 391.949219 300.867188 C 392.535156 300.28125 393.484375 300.28125 394.070312 300.867188 C 394.65625 301.453125 394.65625 302.402344 394.070312 302.988281 L 389.039062 308.019531 C 388.746094 308.3125 388.363281 308.460938 387.980469 308.460938" fill="inherit"/><path d="M 201.789062 494.648438 C 201.40625 494.648438 201.023438 494.503906 200.730469 494.210938 C 200.144531 493.625 200.144531 492.675781 200.730469 492.089844 L 378.527344 314.289062 C 379.113281 313.703125 380.0625 313.703125 380.648438 314.289062 C 381.234375 314.875 381.234375 315.824219 380.648438 316.410156 L 202.851562 494.210938 C 202.558594 494.503906 202.175781 494.648438 201.789062 494.648438" fill="inherit"/><path d="M 307.039062 311.128906 C 306.65625 311.128906 306.273438 310.984375 305.980469 310.691406 C 305.394531 310.105469 305.394531 309.15625 305.980469 308.570312 L 372.261719 242.289062 C 372.847656 241.703125 373.796875 241.703125 374.382812 242.289062 C 374.96875 242.875 374.96875 243.824219 374.382812 244.410156 L 308.101562 310.691406 C 307.808594 310.984375 307.425781 311.128906 307.039062 311.128906" fill="inherit"/><path d="M 346.539062 193.359375 C 346.15625 193.359375 345.773438 193.214844 345.480469 192.921875 C 344.894531 192.335938 344.894531 191.386719 345.480469 190.800781 L 361.070312 175.210938 C 361.65625 174.625 362.605469 174.625 363.191406 175.210938 C 363.777344 175.796875 363.777344 176.746094 363.191406 177.332031 L 347.601562 192.921875 C 347.308594 193.214844 346.925781 193.359375 346.539062 193.359375" fill="inherit"/><path d="M 267.261719 116.089844 C 266.875 116.089844 266.492188 115.941406 266.199219 115.648438 C 265.613281 115.066406 265.613281 114.113281 266.199219 113.527344 L 355.25 24.480469 C 355.835938 23.894531 356.785156 23.894531 357.371094 24.480469 C 357.957031 25.066406 357.957031 26.015625 357.371094 26.601562 L 268.320312 115.648438 C 268.027344 115.941406 267.644531 116.089844 267.261719 116.089844" fill="inherit"/><path d="M 326.710938 448.011719 C 326.324219 448.011719 325.941406 447.863281 325.648438 447.570312 C 325.0625 446.984375 325.0625 446.035156 325.648438 445.449219 L 332.378906 438.71875 C 332.964844 438.132812 333.914062 438.132812 334.5 438.71875 C 335.085938 439.304688 335.085938 440.253906 334.5 440.839844 L 327.769531 447.570312 C 327.476562 447.863281 327.09375 448.011719 326.710938 448.011719" fill="inherit"/><path d="M 276.949219 497.769531 C 276.566406 497.769531 276.183594 497.621094 275.890625 497.328125 C 275.304688 496.742188 275.304688 495.796875 275.890625 495.207031 L 316.589844 454.511719 C 317.175781 453.925781 318.125 453.925781 318.710938 454.511719 C 319.296875 455.097656 319.296875 456.046875 318.710938 456.632812 L 278.011719 497.328125 C 277.71875 497.621094 277.335938 497.769531 276.949219 497.769531" fill="inherit"/><path d="M 226.570312 235.050781 C 226.1875 235.050781 225.800781 234.902344 225.507812 234.609375 C 224.921875 234.023438 224.921875 233.074219 225.507812 232.488281 L 300.117188 157.878906 C 300.703125 157.292969 301.652344 157.292969 302.238281 157.878906 C 302.824219 158.464844 302.824219 159.414062 302.238281 160 L 227.628906 234.609375 C 227.335938 234.902344 226.953125 235.050781 226.570312 235.050781" fill="inherit"/><path d="M 256.699219 48.378906 C 256.316406 48.378906 255.933594 48.234375 255.640625 47.941406 C 255.054688 47.355469 255.054688 46.40625 255.640625 45.820312 L 296.410156 5.050781 C 296.996094 4.464844 297.945312 4.464844 298.53125 5.050781 C 299.117188 5.636719 299.117188 6.585938 298.53125 7.171875 L 257.761719 47.941406 C 257.46875 48.234375 257.085938 48.378906 256.699219 48.378906" fill="inherit"/><path d="M 190.960938 427.210938 C 190.574219 427.210938 190.191406 427.0625 189.898438 426.769531 C 189.3125 426.183594 189.3125 425.234375 189.898438 424.648438 L 288.261719 326.289062 C 288.847656 325.703125 289.796875 325.703125 290.382812 326.289062 C 290.96875 326.875 290.96875 327.824219 290.382812 328.410156 L 192.019531 426.769531 C 191.726562 427.0625 191.34375 427.210938 190.960938 427.210938" fill="inherit"/><path d="M 94.832031 445.070312 C 94.445312 445.070312 94.0625 444.925781 93.769531 444.632812 C 93.183594 444.046875 93.183594 443.097656 93.769531 442.511719 L 262.179688 274.101562 C 262.765625 273.515625 263.714844 273.515625 264.300781 274.101562 C 264.886719 274.6875 264.886719 275.636719 264.300781 276.222656 L 95.890625 444.632812 C 95.597656 444.925781 95.214844 445.070312 94.832031 445.070312" fill="inherit"/><path d="M 170.53125 212.828125 C 170.144531 212.828125 169.761719 212.683594 169.46875 212.390625 C 168.882812 211.804688 168.882812 210.855469 169.46875 210.269531 L 238.070312 141.660156 C 238.652344 141.074219 239.605469 141.074219 240.191406 141.660156 C 240.777344 142.246094 240.777344 143.195312 240.191406 143.78125 L 171.589844 212.390625 C 171.296875 212.683594 170.914062 212.828125 170.53125 212.828125" fill="inherit"/><path d="M 167.449219 137.628906 C 167.066406 137.628906 166.683594 137.484375 166.390625 137.191406 C 165.804688 136.605469 165.804688 135.65625 166.390625 135.070312 L 224.160156 77.300781 C 224.746094 76.714844 225.695312 76.714844 226.28125 77.300781 C 226.867188 77.886719 226.867188 78.835938 226.28125 79.421875 L 168.511719 137.191406 C 168.21875 137.484375 167.832031 137.628906 167.449219 137.628906" fill="inherit"/><path d="M 140.171875 86.628906 C 139.785156 86.628906 139.402344 86.484375 139.109375 86.191406 C 138.523438 85.605469 138.523438 84.65625 139.109375 84.070312 L 221.25 1.929688 C 221.835938 1.34375 222.785156 1.34375 223.371094 1.929688 C 223.957031 2.515625 223.957031 3.464844 223.371094 4.050781 L 141.230469 86.191406 C 140.9375 86.484375 140.554688 86.628906 140.171875 86.628906" fill="inherit"/><path d="M 211.339844 250.28125 C 210.957031 250.28125 210.570312 250.132812 210.277344 249.839844 C 209.691406 249.253906 209.691406 248.304688 210.277344 247.71875 L 216.347656 241.648438 C 216.933594 241.0625 217.882812 241.0625 218.46875 241.648438 C 219.054688 242.234375 219.054688 243.183594 218.46875 243.769531 L 212.398438 249.839844 C 212.105469 250.132812 211.722656 250.28125 211.339844 250.28125" fill="inherit"/><path d="M 112.890625 348.730469 C 112.507812 348.730469 112.121094 348.582031 111.828125 348.289062 C 111.242188 347.703125 111.242188 346.753906 111.828125 346.167969 L 200.257812 257.738281 C 200.84375 257.152344 201.792969 257.152344 202.378906 257.738281 C 202.964844 258.324219 202.964844 259.273438 202.378906 259.859375 L 113.949219 348.289062 C 113.65625 348.582031 113.273438 348.730469 112.890625 348.730469" fill="inherit"/><path d="M 177.980469 440.1875 C 177.597656 440.1875 177.210938 440.042969 176.917969 439.75 C 176.332031 439.164062 176.332031 438.214844 176.917969 437.628906 L 181.289062 433.261719 C 181.875 432.675781 182.824219 432.675781 183.410156 433.261719 C 183.996094 433.847656 183.996094 434.796875 183.410156 435.382812 L 179.039062 439.75 C 178.746094 440.042969 178.363281 440.1875 177.980469 440.1875" fill="inherit"/><path d="M 148.191406 235.160156 C 147.804688 235.160156 147.421875 235.011719 147.128906 234.71875 C 146.542969 234.136719 146.542969 233.183594 147.128906 232.597656 L 156.359375 223.367188 C 156.945312 222.78125 157.894531 222.78125 158.480469 223.367188 C 159.066406 223.953125 159.066406 224.90625 158.480469 225.488281 L 149.25 234.71875 C 148.957031 235.011719 148.574219 235.160156 148.191406 235.160156" fill="inherit"/><path d="M 142.960938 475.21875 C 142.574219 475.21875 142.191406 475.074219 141.898438 474.78125 C 141.3125 474.195312 141.3125 473.246094 141.898438 472.660156 L 154.308594 460.25 C 154.894531 459.664062 155.84375 459.664062 156.429688 460.25 C 157.015625 460.835938 157.015625 461.785156 156.429688 462.371094 L 144.019531 474.78125 C 143.726562 475.074219 143.34375 475.21875 142.960938 475.21875" fill="inherit"/><path d="M 91.21875 292.128906 C 90.835938 292.128906 90.453125 291.984375 90.160156 291.691406 C 89.574219 291.105469 89.574219 290.15625 90.160156 289.570312 L 135.558594 244.167969 C 136.144531 243.582031 137.09375 243.582031 137.679688 244.167969 C 138.265625 244.753906 138.265625 245.703125 137.679688 246.289062 L 92.28125 291.691406 C 91.988281 291.984375 91.601562 292.128906 91.21875 292.128906" fill="inherit"/><path d="M 63.160156 163.640625 C 62.777344 163.640625 62.390625 163.492188 62.097656 163.199219 C 61.511719 162.613281 61.511719 161.664062 62.097656 161.078125 L 113.058594 110.117188 C 113.644531 109.53125 114.59375 109.53125 115.179688 110.117188 C 115.765625 110.703125 115.765625 111.65625 115.179688 112.238281 L 64.21875 163.199219 C 63.925781 163.492188 63.542969 163.640625 63.160156 163.640625" fill="inherit"/><path d="M 106.238281 198.839844 C 105.855469 198.839844 105.472656 198.691406 105.179688 198.398438 C 104.59375 197.816406 104.59375 196.863281 105.179688 196.277344 L 112.757812 188.699219 C 113.34375 188.113281 114.292969 188.113281 114.878906 188.699219 C 115.464844 189.285156 115.464844 190.234375 114.878906 190.820312 L 107.300781 198.398438 C 107.007812 198.691406 106.625 198.839844 106.238281 198.839844" fill="inherit"/><path d="M 98.378906 363.238281 C 97.996094 363.238281 97.613281 363.09375 97.320312 362.800781 C 96.734375 362.214844 96.734375 361.265625 97.320312 360.679688 L 103.519531 354.480469 C 104.105469 353.894531 105.054688 353.894531 105.640625 354.480469 C 106.226562 355.066406 106.226562 356.015625 105.640625 356.601562 L 99.441406 362.800781 C 99.148438 363.09375 98.765625 363.238281 98.378906 363.238281" fill="inherit"/><path d="M 6.109375 298.96875 C 5.726562 298.96875 5.34375 298.824219 5.050781 298.53125 C 4.464844 297.945312 4.464844 296.996094 5.050781 296.410156 L 95.519531 205.9375 C 96.105469 205.355469 97.054688 205.355469 97.640625 205.9375 C 98.226562 206.523438 98.226562 207.476562 97.640625 208.0625 L 7.171875 298.53125 C 6.878906 298.824219 6.492188 298.96875 6.109375 298.96875" fill="inherit"/><path d="M 55.691406 405.929688 C 55.304688 405.929688 54.921875 405.78125 54.628906 405.488281 C 54.042969 404.902344 54.042969 403.953125 54.628906 403.367188 L 75.140625 382.859375 C 75.726562 382.273438 76.675781 382.273438 77.261719 382.859375 C 77.847656 383.445312 77.847656 384.394531 77.261719 384.980469 L 56.75 405.488281 C 56.457031 405.78125 56.074219 405.929688 55.691406 405.929688" fill="inherit"/><path d="M 2.988281 223.808594 C 2.605469 223.808594 2.222656 223.664062 1.929688 223.371094 C 1.34375 222.785156 1.34375 221.835938 1.929688 221.25 L 45.5 177.679688 C 46.085938 177.09375 47.035156 177.09375 47.621094 177.679688 C 48.207031 178.265625 48.207031 179.214844 47.621094 179.800781 L 4.050781 223.371094 C 3.757812 223.664062 3.375 223.808594 2.988281 223.808594" fill="inherit"/><path d="M 25.539062 357.808594 C 25.15625 357.808594 24.773438 357.664062 24.480469 357.371094 C 23.894531 356.785156 23.894531 355.835938 24.480469 355.25 L 32.640625 347.089844 C 33.226562 346.503906 34.175781 346.503906 34.761719 347.089844 C 35.347656 347.675781 35.347656 348.625 34.761719 349.210938 L 26.601562 357.371094 C 26.308594 357.664062 25.921875 357.808594 25.539062 357.808594" fill="inherit"/></g></svg>