<?xml version="1.0" encoding="UTF-8"?><svg xmlns="http://www.w3.org/2000/svg" xmlns:xlink="http://www.w3.org/1999/xlink" height="500.3" preserveAspectRatio="xMidYMid meet" version="1.0" viewBox="-0.1 -0.2 411.1 500.3" width="411.1" zoomAndPan="magnify"><defs><clipPath id="a"><path d="M 307 31 L 410.921875 31 L 410.921875 140 L 307 140 Z M 307 31"/></clipPath><clipPath id="b"><path d="M 11 445 L 306 445 L 306 500.050781 L 11 500.050781 Z M 11 445"/></clipPath></defs><g><g id="change1_1"><path d="M 49.726562 286.804688 C 49.726562 286.804688 49.722656 286.804688 49.722656 286.804688 C 48.894531 286.800781 48.222656 286.128906 48.226562 285.300781 C 48.304688 257.84375 50.832031 235.515625 55.949219 217.035156 C 56.167969 216.238281 56.996094 215.769531 57.792969 215.992188 C 58.59375 216.214844 59.0625 217.039062 58.839844 217.839844 C 53.792969 236.054688 51.304688 258.121094 51.226562 285.308594 C 51.222656 286.136719 50.554688 286.804688 49.726562 286.804688" fill="#7daa7b"/></g><g id="change1_2"><path d="M 27.21875 289.214844 C 27.058594 289.214844 26.894531 289.191406 26.734375 289.136719 C 25.949219 288.867188 25.53125 288.019531 25.796875 287.234375 C 28.078125 280.507812 29.914062 273.421875 31.6875 266.566406 C 33.523438 259.484375 35.421875 252.160156 37.832031 245.128906 C 38.097656 244.34375 38.949219 243.925781 39.734375 244.195312 C 40.519531 244.464844 40.9375 245.316406 40.667969 246.101562 C 38.296875 253.023438 36.414062 260.289062 34.59375 267.320312 C 32.804688 274.226562 30.953125 281.367188 28.636719 288.195312 C 28.425781 288.820312 27.84375 289.214844 27.21875 289.214844" fill="#7daa7b"/></g><g id="change1_3"><path d="M 73.839844 298.859375 C 73.746094 298.859375 73.652344 298.851562 73.554688 298.832031 C 72.742188 298.675781 72.210938 297.890625 72.367188 297.074219 C 73.082031 293.390625 73.808594 289.757812 74.527344 286.164062 C 78.917969 264.25 83.0625 243.550781 81.949219 220.667969 C 81.40625 209.4375 79.8125 198.15625 76.785156 184.089844 C 76.613281 183.28125 77.128906 182.484375 77.9375 182.308594 C 78.746094 182.132812 79.542969 182.648438 79.71875 183.460938 C 82.78125 197.691406 84.394531 209.125 84.945312 220.523438 C 86.078125 243.773438 81.894531 264.652344 77.46875 286.753906 C 76.75 290.34375 76.023438 293.96875 75.3125 297.644531 C 75.171875 298.363281 74.546875 298.859375 73.839844 298.859375" fill="#7daa7b"/></g><g clip-path="url(#a)" id="change1_32"><path d="M 381.015625 139.75 C 380.378906 139.75 379.785156 139.339844 379.585938 138.699219 C 379.335938 137.910156 379.773438 137.070312 380.566406 136.820312 C 383.648438 135.847656 386.984375 134.847656 390.460938 134.152344 C 391.164062 134.007812 392.066406 133.863281 393.089844 133.703125 C 397.699219 132.96875 406.273438 131.597656 407.59375 127.789062 C 408.238281 125.933594 407.945312 124.4375 406.671875 123.078125 C 403.140625 119.304688 393.117188 118.066406 388.695312 119.285156 C 388.089844 119.453125 387.4375 119.21875 387.074219 118.703125 C 386.707031 118.1875 386.707031 117.496094 387.070312 116.980469 C 388.4375 115.019531 390.726562 113.242188 393.152344 111.363281 C 396.914062 108.445312 400.804688 105.429688 400.6875 102.085938 C 400.621094 100.285156 400.117188 99.023438 399.136719 98.230469 C 396.617188 96.191406 391.105469 97.164062 386.675781 97.945312 C 384.25 98.371094 382.160156 98.742188 380.53125 98.671875 C 380.050781 98.652344 379.605469 98.402344 379.339844 97.996094 C 379.074219 97.59375 379.019531 97.089844 379.191406 96.636719 C 379.769531 95.128906 380.792969 93.359375 381.878906 91.488281 C 385.574219 85.113281 388.113281 79.976562 384.542969 76.667969 C 380.488281 72.910156 371.046875 78.84375 366.890625 82.855469 C 366.386719 83.34375 365.613281 83.414062 365.03125 83.035156 C 364.445312 82.652344 364.199219 81.917969 364.441406 81.261719 L 364.492188 81.113281 C 366.03125 76.925781 370.707031 64.179688 365.050781 61.382812 C 361.613281 59.683594 355.894531 63.789062 351.296875 67.089844 C 349.066406 68.6875 346.957031 70.199219 345.226562 70.96875 C 344.753906 71.179688 344.210938 71.132812 343.78125 70.84375 C 343.351562 70.554688 343.101562 70.066406 343.117188 69.550781 C 343.164062 68.117188 343.664062 66.429688 344.195312 64.648438 C 345.03125 61.824219 345.976562 58.625 344.917969 56.878906 C 344.429688 56.070312 343.476562 55.539062 342.003906 55.253906 C 338.933594 54.652344 332.867188 59.347656 328.199219 64.257812 C 327.695312 64.785156 326.882812 64.878906 326.277344 64.46875 C 325.667969 64.0625 325.441406 63.277344 325.742188 62.609375 C 326.132812 61.730469 326.714844 60.558594 327.386719 59.199219 C 330.359375 53.183594 336.550781 40.660156 334.015625 36.292969 C 333.480469 35.367188 332.484375 34.875 330.976562 34.78125 C 322.800781 34.3125 314.65625 49.367188 310.550781 63.589844 C 310.324219 64.386719 309.488281 64.84375 308.695312 64.617188 C 307.898438 64.386719 307.441406 63.554688 307.667969 62.757812 C 311.910156 48.066406 320.621094 31.140625 331.15625 31.789062 C 334.339844 31.980469 335.878906 33.527344 336.613281 34.785156 C 339.300781 39.421875 335.964844 48.191406 331.902344 56.765625 C 335.339844 54.042969 339.382812 51.6875 342.578125 52.308594 C 344.890625 52.757812 346.539062 53.773438 347.480469 55.320312 C 349.230469 58.203125 348.082031 62.078125 347.070312 65.5 C 346.957031 65.882812 346.847656 66.257812 346.742188 66.621094 C 347.625 66.03125 348.574219 65.347656 349.546875 64.648438 C 354.796875 60.886719 361.332031 56.199219 366.378906 58.695312 C 372.605469 61.769531 370.945312 70.878906 368.964844 77.332031 C 374.105469 73.730469 381.839844 70.070312 386.582031 74.46875 C 392.199219 79.667969 387.734375 87.371094 384.472656 92.992188 C 383.96875 93.863281 383.480469 94.710938 383.050781 95.5 C 384.003906 95.367188 385.0625 95.183594 386.15625 94.988281 C 391.183594 94.105469 397.445312 93.003906 401.023438 95.898438 C 402.695312 97.25 403.589844 99.296875 403.6875 101.980469 C 403.859375 106.859375 399.148438 110.511719 394.988281 113.734375 C 394.046875 114.464844 393.128906 115.179688 392.292969 115.878906 C 397.722656 115.796875 405.28125 117.207031 408.863281 121.027344 C 410.894531 123.195312 411.433594 125.871094 410.429688 128.773438 C 408.519531 134.277344 399.519531 135.714844 393.5625 136.664062 C 392.585938 136.820312 391.726562 136.957031 391.054688 137.09375 C 387.714844 137.761719 384.472656 138.730469 381.46875 139.679688 C 381.316406 139.726562 381.164062 139.75 381.015625 139.75" fill="#7daa7b"/></g><g id="change1_4"><path d="M 271.023438 129.597656 C 270.402344 129.597656 269.824219 129.210938 269.609375 128.59375 C 269.335938 127.8125 269.746094 126.957031 270.527344 126.683594 C 275.066406 125.09375 280.421875 121.933594 280.148438 115.90625 C 280 112.707031 278.894531 110.476562 277.113281 109.785156 C 275.242188 109.054688 272.65625 110.089844 270.191406 112.546875 C 269.648438 113.089844 268.785156 113.132812 268.191406 112.652344 C 267.59375 112.171875 267.453125 111.320312 267.867188 110.675781 C 271.230469 105.414062 271.925781 100.3125 269.640625 97.683594 C 267.59375 95.332031 263.421875 95.359375 258.195312 97.753906 C 257.703125 97.976562 257.136719 97.925781 256.703125 97.613281 C 256.265625 97.304688 256.027344 96.785156 256.074219 96.253906 C 256.230469 94.574219 256.972656 92.714844 257.761719 90.746094 C 259.128906 87.328125 260.539062 83.792969 258.820312 81.511719 C 256.195312 78.046875 251.226562 80.636719 246.359375 83.585938 L 245.644531 84.015625 C 245.128906 84.328125 244.472656 84.296875 243.984375 83.9375 C 243.496094 83.578125 243.273438 82.960938 243.414062 82.375 C 244.625 77.414062 244.285156 74.070312 242.480469 73.203125 C 239.882812 71.949219 233.59375 74.949219 228.710938 81.25 C 228.214844 81.886719 227.308594 82.019531 226.652344 81.550781 C 224.464844 79.992188 223.777344 76.820312 223.050781 73.460938 C 221.929688 68.285156 221.011719 65.164062 217.425781 65.488281 C 213.101562 65.886719 209.433594 75.871094 208.976562 80.152344 C 208.90625 80.832031 208.382812 81.378906 207.703125 81.476562 C 207.023438 81.574219 206.367188 81.203125 206.105469 80.574219 C 205.242188 78.523438 204.519531 76.324219 203.820312 74.199219 C 202.097656 68.976562 200.320312 63.582031 196.367188 59.988281 C 189.167969 64.339844 193.242188 80.378906 194.710938 85.328125 C 194.945312 86.125 194.492188 86.960938 193.699219 87.195312 C 192.90625 87.433594 192.070312 86.976562 191.832031 86.183594 C 185.539062 64.953125 191.726562 58.671875 195.976562 56.820312 C 196.484375 56.597656 197.078125 56.675781 197.511719 57.023438 C 202.679688 61.152344 204.707031 67.308594 206.667969 73.261719 C 206.835938 73.773438 207.003906 74.277344 207.167969 74.777344 C 207.671875 73.21875 208.320312 71.550781 209.113281 69.957031 C 211.398438 65.355469 214.179688 62.777344 217.148438 62.5 C 223.628906 61.90625 224.984375 68.222656 225.984375 72.828125 C 226.398438 74.753906 226.824219 76.722656 227.503906 78 C 232.335938 72.480469 239.351562 68.359375 243.785156 70.5 C 245.742188 71.445312 247.710938 73.828125 246.964844 79.742188 C 251.289062 77.296875 257.425781 74.703125 261.210938 79.703125 C 263.953125 83.335938 262.0625 88.0625 260.546875 91.859375 C 260.261719 92.566406 259.984375 93.261719 259.746094 93.917969 C 265.019531 92.179688 269.363281 92.789062 271.902344 95.714844 C 274.261719 98.425781 274.589844 102.539062 272.980469 107.097656 C 274.804688 106.414062 276.59375 106.363281 278.203125 106.988281 C 281.140625 108.128906 282.941406 111.328125 283.144531 115.769531 C 283.425781 121.910156 279.296875 126.792969 271.519531 129.515625 C 271.355469 129.570312 271.1875 129.597656 271.023438 129.597656" fill="#7daa7b"/></g><g id="change1_5"><path d="M 206.183594 136.742188 C 213.417969 136.90625 220.472656 137.84375 226.445312 138.742188 C 227.179688 138.855469 228.148438 139.046875 229.265625 139.265625 C 233.652344 140.121094 241.816406 141.71875 244.386719 139.71875 C 246.640625 137.960938 246.953125 136.9375 246.984375 136.582031 C 247 136.386719 246.972656 136.144531 246.632812 135.796875 C 244.570312 133.6875 236.902344 132.953125 233.539062 133.164062 C 232.925781 133.199219 232.351562 132.863281 232.089844 132.308594 C 231.824219 131.753906 231.925781 131.09375 232.347656 130.644531 C 233.566406 129.335938 234.765625 127.160156 234.691406 125.257812 C 234.65625 124.269531 234.285156 123.464844 233.5625 122.800781 C 231.601562 121.003906 227.996094 122.546875 224.511719 124.042969 C 222.371094 124.957031 220.351562 125.820312 218.5625 125.976562 C 217.949219 126.019531 217.410156 125.726562 217.121094 125.210938 C 216.835938 124.691406 216.878906 124.054688 217.234375 123.578125 C 218.789062 121.511719 220.171875 115.714844 218.820312 112.25 C 218.320312 110.957031 217.507812 110.222656 216.335938 110.003906 C 213.632812 109.503906 211.246094 114.828125 209.675781 118.351562 C 209.113281 119.605469 208.632812 120.6875 208.160156 121.503906 C 207.890625 121.96875 207.394531 122.257812 206.859375 122.257812 C 206.320312 122.257812 205.828125 121.96875 205.558594 121.503906 C 205.308594 121.066406 205.007812 120.53125 204.664062 119.929688 C 197.0625 106.472656 193.984375 103.304688 192.746094 103.09375 C 192.71875 103.128906 192.6875 103.183594 192.652344 103.261719 C 192.398438 103.796875 192.007812 105.273438 192.214844 109.175781 C 192.671875 117.734375 197.136719 123.929688 201.859375 130.488281 C 203.316406 132.507812 204.816406 134.59375 206.183594 136.742188 Z M 239.824219 143.667969 C 236.152344 143.667969 231.9375 142.84375 228.691406 142.207031 C 227.621094 142 226.695312 141.816406 225.996094 141.710938 C 219.917969 140.792969 212.710938 139.839844 205.316406 139.726562 C 205.085938 139.714844 204.921875 139.710938 204.761719 139.714844 C 203.933594 139.714844 203.261719 139.042969 203.261719 138.214844 C 203.261719 138.078125 203.277344 137.949219 203.3125 137.824219 C 202.082031 135.929688 200.734375 134.058594 199.425781 132.238281 C 194.65625 125.617188 189.722656 118.773438 189.21875 109.335938 C 189.027344 105.761719 189.257812 103.425781 189.9375 101.980469 C 190.691406 100.386719 191.890625 100.109375 192.539062 100.085938 C 196 99.996094 200.40625 106.367188 206.753906 117.53125 C 206.8125 117.398438 206.875 117.265625 206.933594 117.128906 C 209.011719 112.480469 211.863281 106.113281 216.886719 107.054688 C 219.097656 107.46875 220.734375 108.886719 221.617188 111.160156 C 222.90625 114.472656 222.378906 118.902344 221.242188 122.152344 C 221.910156 121.890625 222.613281 121.589844 223.328125 121.285156 C 227.28125 119.589844 232.203125 117.484375 235.589844 120.589844 C 236.894531 121.789062 237.621094 123.363281 237.691406 125.144531 C 237.761719 126.925781 237.179688 128.683594 236.355469 130.175781 C 240.382812 130.359375 246.359375 131.222656 248.777344 133.699219 C 249.660156 134.601562 250.074219 135.6875 249.972656 136.835938 C 249.832031 138.515625 248.609375 140.230469 246.230469 142.085938 C 244.722656 143.257812 242.410156 143.667969 239.824219 143.667969" fill="#7daa7b"/></g><g id="change1_6"><path d="M 248.476562 138.207031 C 247.664062 138.207031 247 137.558594 246.980469 136.742188 C 246.960938 135.914062 247.613281 135.226562 248.441406 135.207031 C 261.878906 134.882812 269.171875 132.382812 269.527344 127.976562 C 269.648438 126.789062 269.285156 125.386719 268.449219 123.773438 C 266.09375 119.226562 262.683594 120.308594 257.320312 122.453125 C 255.40625 123.222656 253.425781 124.015625 251.546875 124.3125 C 251.003906 124.398438 250.453125 124.175781 250.117188 123.738281 C 249.78125 123.296875 249.71875 122.710938 249.949219 122.207031 C 250.453125 121.097656 251.089844 119.992188 251.765625 118.824219 C 253.640625 115.570312 255.578125 112.203125 254.402344 109.039062 C 253.648438 107.007812 252.601562 105.839844 251.199219 105.472656 C 248.789062 104.835938 245.003906 106.511719 240.800781 110.0625 C 240.304688 110.484375 239.585938 110.535156 239.035156 110.183594 C 238.480469 109.835938 238.21875 109.167969 238.382812 108.535156 C 238.519531 108.019531 238.683594 107.441406 238.863281 106.808594 C 240.238281 101.964844 242.535156 93.859375 238.035156 91.785156 C 233.867188 89.859375 226.363281 97.355469 223.269531 101.792969 C 222.941406 102.261719 222.378906 102.507812 221.808594 102.417969 C 221.242188 102.328125 220.773438 101.925781 220.605469 101.378906 C 219.828125 98.871094 219.90625 95.9375 219.984375 93.101562 C 220.09375 88.902344 220.199219 84.914062 217.796875 82.359375 C 211.460938 86.371094 207.859375 95.128906 205.195312 101.601562 C 204.925781 102.261719 204.230469 102.640625 203.53125 102.503906 C 202.828125 102.371094 202.320312 101.765625 202.308594 101.054688 C 202.230469 96.183594 199.292969 86.777344 196.421875 85.738281 C 196.179688 85.648438 195.542969 85.417969 194.40625 86.734375 C 193.777344 87.453125 193.140625 88.503906 192.511719 89.859375 C 190.765625 93.601562 191.625 97.855469 192.746094 102.253906 C 192.953125 103.054688 192.46875 103.871094 191.664062 104.078125 C 190.859375 104.28125 190.046875 103.796875 189.839844 102.992188 C 188.628906 98.246094 187.628906 93.226562 189.789062 88.59375 C 190.539062 86.980469 191.332031 85.6875 192.144531 84.765625 C 194.1875 82.394531 196.15625 82.449219 197.445312 82.914062 C 200.972656 84.195312 203.390625 90.335938 204.539062 95.46875 C 207.324219 89.242188 211.140625 82.496094 217.277344 79.191406 C 217.800781 78.90625 218.445312 78.964844 218.914062 79.332031 C 223.257812 82.753906 223.113281 88.292969 222.980469 93.183594 C 222.945312 94.617188 222.90625 96.007812 222.972656 97.304688 C 226.90625 92.703125 233.828125 86.535156 239.292969 89.0625 C 245.160156 91.765625 243.886719 99.542969 242.445312 105.101562 C 245.457031 103.160156 248.902344 101.765625 251.964844 102.570312 C 254.347656 103.195312 256.113281 105.023438 257.214844 107.996094 C 258.878906 112.480469 256.480469 116.648438 254.363281 120.324219 C 254.347656 120.351562 254.328125 120.382812 254.3125 120.410156 C 254.929688 120.183594 255.5625 119.929688 256.207031 119.671875 C 260.921875 117.78125 267.378906 115.195312 271.113281 122.390625 C 272.222656 124.53125 272.695312 126.503906 272.515625 128.253906 C 272.003906 134.5625 264.152344 137.828125 248.515625 138.207031 C 248.503906 138.207031 248.492188 138.207031 248.476562 138.207031" fill="#7daa7b"/></g><g id="change1_7"><path d="M 155.160156 151.3125 C 154.648438 151.3125 154.144531 151.046875 153.867188 150.570312 C 148.902344 142.082031 145.8125 129.574219 144.683594 113.398438 C 144.625 112.570312 145.246094 111.855469 146.074219 111.796875 C 146.894531 111.734375 147.617188 112.363281 147.675781 113.1875 C 148.773438 128.902344 151.726562 140.96875 156.457031 149.054688 C 156.875 149.769531 156.632812 150.6875 155.917969 151.105469 C 155.679688 151.246094 155.421875 151.3125 155.160156 151.3125" fill="#7daa7b"/></g><g id="change1_8"><path d="M 380.988281 141.132812 Z M 380.988281 141.136719 Z M 380.988281 141.136719 C 380.988281 141.136719 380.988281 141.136719 380.988281 141.140625 C 380.988281 141.136719 380.988281 141.136719 380.988281 141.136719 Z M 380.988281 141.140625 Z M 380.988281 141.140625 C 380.988281 141.140625 380.988281 141.140625 380.988281 141.144531 C 380.988281 141.140625 380.988281 141.140625 380.988281 141.140625 Z M 382.488281 142.632812 C 381.691406 142.632812 381.039062 142.011719 380.988281 141.230469 C 380.976562 141.160156 380.96875 141.105469 380.960938 141.046875 C 380.859375 140.527344 380.507812 139.898438 379.921875 139.277344 C 377.542969 136.78125 372.039062 135.121094 368.019531 133.910156 C 366.289062 133.390625 364.796875 132.9375 363.714844 132.484375 C 363.0625 132.210938 362.6875 131.519531 362.820312 130.824219 C 362.949219 130.128906 363.546875 129.621094 364.253906 129.601562 L 365.445312 129.570312 C 369.886719 129.464844 374.457031 129.351562 378.359375 127.992188 C 371.507812 118.519531 367.9375 116.878906 356.390625 114.050781 C 355.953125 113.945312 355.589844 113.648438 355.394531 113.246094 C 355.203125 112.84375 355.195312 112.375 355.382812 111.96875 C 356.390625 109.769531 358.328125 107.816406 360.199219 105.925781 C 362.382812 103.71875 364.464844 101.617188 364.9375 99.414062 C 361.953125 98.683594 358.769531 99.183594 355.679688 99.671875 C 352.113281 100.234375 348.417969 100.816406 344.980469 99.515625 C 344.261719 99.246094 343.863281 98.476562 344.058594 97.734375 C 344.21875 97.128906 344.496094 96.242188 344.851562 95.125 C 347.824219 85.75 348.65625 80.46875 347.328125 79.421875 C 344.519531 77.207031 339.84375 82.4375 336.429688 86.246094 C 334.753906 88.117188 333.308594 89.730469 332.09375 90.511719 C 331.613281 90.824219 330.996094 90.832031 330.507812 90.535156 C 330.015625 90.238281 329.738281 89.691406 329.789062 89.121094 C 329.851562 88.398438 329.945312 87.59375 330.046875 86.742188 C 330.464844 83.140625 331.097656 77.695312 329.320312 76.089844 C 329.109375 75.898438 328.460938 75.3125 326.519531 75.742188 C 323.890625 76.3125 320.527344 81.609375 318.300781 85.113281 C 317.296875 86.6875 316.433594 88.050781 315.679688 88.988281 C 315.378906 89.363281 314.941406 89.570312 314.433594 89.546875 C 313.953125 89.519531 313.515625 89.265625 313.253906 88.863281 C 310.898438 85.226562 310.765625 80.628906 310.636719 76.183594 C 310.511719 71.890625 310.394531 67.820312 308.417969 64.777344 C 303.667969 71.117188 301.375 91.597656 303.117188 100.027344 C 303.285156 100.839844 302.761719 101.632812 301.953125 101.800781 C 301.136719 101.96875 300.347656 101.445312 300.179688 100.636719 C 299.183594 95.816406 299.351562 87.539062 300.601562 79.546875 C 301.4375 74.191406 303.457031 64.703125 307.566406 61.328125 C 308.1875 60.816406 309.101562 60.890625 309.636719 61.484375 C 309.863281 61.738281 310.089844 61.992188 310.289062 62.246094 C 313.347656 66.121094 313.492188 71.191406 313.636719 76.097656 C 313.730469 79.367188 313.820312 82.496094 314.742188 85.105469 C 315.0625 84.613281 315.40625 84.074219 315.765625 83.503906 C 318.558594 79.113281 322.027344 73.644531 325.878906 72.8125 C 328.160156 72.308594 330 72.660156 331.328125 73.863281 C 333.902344 76.183594 333.6875 80.992188 333.222656 85.324219 C 333.539062 84.976562 333.863281 84.613281 334.195312 84.246094 C 338.402344 79.546875 344.164062 73.113281 349.1875 77.066406 C 352.535156 79.703125 350.296875 87.882812 347.710938 96.03125 C 347.59375 96.40625 347.480469 96.765625 347.375 97.09375 C 349.753906 97.570312 352.417969 97.148438 355.210938 96.707031 C 359.054688 96.101562 363.023438 95.476562 367.042969 96.921875 C 367.625 97.128906 368.019531 97.671875 368.035156 98.289062 C 368.148438 102.164062 365.191406 105.148438 362.328125 108.035156 C 361.113281 109.265625 359.941406 110.449219 359.070312 111.628906 C 370.191406 114.480469 374.261719 116.894531 381.90625 127.804688 C 382.160156 128.164062 382.242188 128.621094 382.128906 129.046875 C 382.015625 129.476562 381.722656 129.828125 381.320312 130.019531 C 378.648438 131.289062 375.65625 131.898438 372.636719 132.210938 C 376.257812 133.410156 379.933594 134.941406 382.101562 137.214844 C 383.09375 138.269531 383.703125 139.402344 383.925781 140.589844 C 383.925781 140.59375 383.941406 140.703125 383.945312 140.707031 C 383.96875 140.851562 383.988281 140.992188 383.988281 141.132812 C 383.988281 141.960938 383.316406 142.632812 382.488281 142.632812" fill="#7daa7b"/></g><g id="change1_9"><path d="M 169.203125 195.679688 C 168.4375 195.679688 167.78125 195.09375 167.714844 194.3125 C 167.082031 187.089844 164.996094 182.011719 160.519531 176.796875 L 154.554688 169.851562 C 147.683594 161.886719 140.578125 153.648438 133.773438 144.949219 C 132.339844 143.121094 130.9375 141.292969 129.605469 139.511719 C 118.285156 124.375 112.417969 111.546875 115.921875 90.765625 C 119.683594 68.382812 128.496094 44.464844 140.734375 23.417969 C 144.691406 16.609375 148.917969 10.261719 153.296875 4.546875 C 154.246094 3.289062 155.273438 1.980469 156.433594 0.558594 C 156.957031 -0.0859375 157.898438 -0.183594 158.542969 0.339844 C 159.183594 0.863281 159.28125 1.808594 158.761719 2.449219 C 157.625 3.847656 156.617188 5.128906 155.683594 6.363281 C 151.375 11.984375 147.222656 18.226562 143.328125 24.925781 C 131.269531 45.667969 122.585938 69.226562 118.878906 91.261719 C 115.554688 110.984375 121.175781 123.230469 132.007812 137.714844 C 133.328125 139.476562 134.714844 141.289062 136.136719 143.101562 C 142.894531 151.742188 149.976562 159.953125 156.828125 167.894531 L 162.796875 174.839844 C 167.65625 180.503906 170.019531 186.25 170.699219 194.050781 C 170.773438 194.875 170.164062 195.601562 169.335938 195.675781 C 169.292969 195.679688 169.25 195.679688 169.203125 195.679688" fill="#7daa7b"/></g><g id="change1_10"><path d="M 155.6875 170.375 C 154.933594 170.375 154.28125 169.800781 154.199219 169.03125 C 153.847656 165.71875 153.636719 162.566406 153.554688 159.390625 C 153.453125 156.199219 153.492188 153.039062 153.664062 149.734375 C 153.875 145.648438 154.296875 141.605469 154.945312 137.371094 C 155.90625 131.019531 157.511719 124.746094 159.066406 118.683594 C 160.546875 112.898438 162.078125 106.921875 163.023438 100.953125 C 164.851562 89.367188 162.0625 80.027344 158.832031 69.214844 L 158.316406 67.484375 C 152.65625 48.457031 150.730469 28.851562 152.582031 9.214844 C 152.703125 7.898438 152.839844 6.597656 152.996094 5.28125 C 153.097656 4.457031 153.84375 3.875 154.664062 3.96875 C 155.488281 4.070312 156.074219 4.816406 155.976562 5.640625 C 155.820312 6.925781 155.6875 8.203125 155.570312 9.492188 C 153.753906 28.75 155.644531 47.972656 161.191406 66.628906 L 161.707031 68.355469 C 165.039062 79.519531 167.917969 89.164062 165.988281 101.421875 C 165.023438 107.527344 163.472656 113.578125 161.972656 119.425781 C 160.4375 125.421875 158.847656 131.617188 157.910156 137.824219 C 157.273438 141.960938 156.867188 145.90625 156.660156 149.890625 C 156.492188 153.113281 156.457031 156.191406 156.550781 159.304688 C 156.632812 162.40625 156.839844 165.484375 157.183594 168.714844 C 157.269531 169.539062 156.671875 170.277344 155.847656 170.367188 C 155.796875 170.371094 155.742188 170.375 155.6875 170.375" fill="#7daa7b"/></g><g id="change1_11"><path d="M 134.953125 145.527344 C 134.300781 145.527344 133.699219 145.097656 133.511719 144.4375 C 131.171875 136.210938 129.488281 128.199219 127.828125 120.03125 C 127.664062 119.21875 128.1875 118.425781 129 118.261719 C 129.816406 118.101562 130.605469 118.621094 130.769531 119.433594 C 132.414062 127.542969 134.085938 135.492188 136.398438 143.613281 C 136.621094 144.410156 136.160156 145.242188 135.363281 145.46875 C 135.226562 145.507812 135.089844 145.527344 134.953125 145.527344" fill="#7daa7b"/></g><g id="change1_12"><path d="M 138.945312 75.414062 C 138.136719 75.414062 137.46875 74.773438 137.445312 73.960938 C 136.914062 55.171875 141.902344 33.847656 152.699219 8.761719 C 153.929688 5.921875 155.089844 3.34375 156.234375 0.871094 C 156.585938 0.121094 157.476562 -0.207031 158.226562 0.144531 C 158.980469 0.492188 159.304688 1.386719 158.957031 2.136719 C 157.820312 4.585938 156.671875 7.140625 155.453125 9.953125 C 144.835938 34.621094 139.925781 55.535156 140.445312 73.875 C 140.46875 74.703125 139.816406 75.394531 138.988281 75.414062 C 138.972656 75.414062 138.957031 75.414062 138.945312 75.414062" fill="#7daa7b"/></g><g id="change1_13"><path d="M 142.03125 25.671875 C 141.796875 25.671875 141.5625 25.617188 141.339844 25.503906 C 140.605469 25.121094 140.316406 24.214844 140.699219 23.480469 C 142.382812 20.242188 144.085938 17.441406 145.765625 15.15625 C 146.257812 14.488281 147.195312 14.347656 147.863281 14.835938 C 148.53125 15.328125 148.675781 16.265625 148.183594 16.933594 C 146.59375 19.09375 144.972656 21.761719 143.363281 24.863281 C 143.09375 25.378906 142.570312 25.671875 142.03125 25.671875" fill="#7daa7b"/></g><g id="change1_14"><path d="M 333.488281 139.097656 C 333.054688 139.097656 332.625 138.914062 332.328125 138.550781 C 331.804688 137.910156 331.894531 136.96875 332.535156 136.441406 C 337.070312 132.710938 339.035156 129.828125 336.441406 125.285156 C 333.183594 119.539062 326.558594 120.695312 322.898438 121.890625 C 322.425781 122.046875 321.90625 121.957031 321.515625 121.652344 C 321.121094 121.351562 320.90625 120.871094 320.9375 120.375 C 321.03125 118.824219 321.792969 116.835938 322.675781 114.53125 C 323.863281 111.421875 325.496094 107.160156 324.480469 105.328125 C 324.367188 105.128906 324.03125 104.519531 322.675781 104.253906 C 320.1875 103.765625 316.597656 107.523438 313.976562 110.269531 C 312.222656 112.105469 310.710938 113.691406 309.347656 114.386719 C 308.90625 114.613281 308.382812 114.605469 307.945312 114.371094 C 307.511719 114.132812 307.222656 113.695312 307.171875 113.203125 C 306.074219 102.367188 304.804688 99.453125 304.257812 98.683594 C 304.015625 98.964844 303.59375 99.585938 303.03125 100.917969 C 302.914062 101.164062 302.828125 101.394531 302.738281 101.640625 L 302.699219 101.738281 C 301.160156 105.765625 302.570312 119.40625 304.765625 128.019531 C 304.816406 128.242188 304.863281 128.425781 304.910156 128.609375 C 305.113281 129.414062 304.628906 130.230469 303.824219 130.433594 C 303.019531 130.636719 302.203125 130.148438 302.003906 129.347656 C 301.953125 129.144531 301.902344 128.941406 301.851562 128.730469 C 299.738281 120.433594 297.964844 105.71875 299.898438 100.664062 L 299.933594 100.566406 C 300.050781 100.261719 300.160156 99.972656 300.285156 99.710938 C 300.796875 98.492188 302.207031 95.164062 304.648438 95.527344 C 306.777344 95.847656 308.496094 98.546875 309.863281 110.1875 C 310.480469 109.585938 311.148438 108.886719 311.808594 108.195312 C 315.25 104.589844 319.15625 100.507812 323.253906 101.308594 C 325.0625 101.664062 326.359375 102.527344 327.105469 103.875 C 328.796875 106.929688 327.03125 111.539062 325.476562 115.605469 C 325.117188 116.546875 324.75 117.503906 324.464844 118.359375 C 331.015625 116.949219 336.246094 118.863281 339.050781 123.800781 C 343.386719 131.402344 337.566406 136.1875 334.441406 138.757812 C 334.160156 138.988281 333.824219 139.097656 333.488281 139.097656" fill="#7daa7b"/></g><g id="change1_15"><path d="M 370.878906 143.515625 C 361.945312 143.515625 352.894531 142.222656 344.605469 141.042969 L 342.949219 140.808594 C 339.871094 140.375 336.675781 139.804688 333.179688 139.066406 C 328.285156 138.042969 323.515625 136.867188 318.65625 135.652344 C 313.546875 134.375 307.699219 132.695312 303.015625 129.945312 C 302.839844 129.855469 302.664062 129.753906 302.507812 129.652344 C 301.808594 129.207031 301.601562 128.28125 302.046875 127.582031 C 302.492188 126.882812 303.417969 126.679688 304.117188 127.121094 C 304.207031 127.179688 304.304688 127.238281 304.40625 127.285156 C 304.433594 127.304688 304.464844 127.320312 304.492188 127.335938 C 308.859375 129.90625 314.472656 131.511719 319.386719 132.742188 C 324.214844 133.949219 328.949219 135.117188 333.796875 136.132812 C 337.230469 136.855469 340.359375 137.414062 343.367188 137.839844 L 345.027344 138.074219 C 357.390625 139.835938 370.175781 141.65625 382.242188 139.652344 C 383.0625 139.515625 383.828125 140.066406 383.964844 140.886719 C 384.101562 141.703125 383.550781 142.476562 382.734375 142.613281 C 378.859375 143.253906 374.878906 143.515625 370.878906 143.515625" fill="#7daa7b"/></g><g id="change1_16"><path d="M 132.617188 294.847656 C 132.605469 294.847656 132.59375 294.847656 132.578125 294.847656 C 131.753906 294.824219 131.097656 294.140625 131.117188 293.3125 C 131.714844 267.949219 141.972656 243.253906 148.035156 230.789062 C 153.945312 218.65625 160.632812 206.089844 167.90625 193.433594 C 178.339844 175.324219 190.324219 156.460938 203.527344 137.359375 C 203.625 137.214844 203.734375 137.050781 203.859375 136.882812 C 204.359375 136.21875 205.296875 136.085938 205.960938 136.578125 C 206.625 137.074219 206.761719 138.015625 206.265625 138.679688 C 206.171875 138.800781 206.09375 138.921875 206.011719 139.046875 C 192.839844 158.101562 180.898438 176.894531 170.507812 194.929688 C 163.265625 207.523438 156.613281 220.03125 150.734375 232.105469 C 144.777344 244.347656 134.699219 268.589844 134.113281 293.382812 C 134.097656 294.195312 133.429688 294.847656 132.617188 294.847656" fill="#7daa7b"/></g><g id="change1_17"><path d="M 165.53125 263.390625 C 164.925781 263.390625 164.355469 263.023438 164.128906 262.421875 C 163.832031 261.648438 164.222656 260.78125 164.996094 260.488281 L 165.152344 260.429688 C 165.207031 260.410156 165.265625 260.394531 165.316406 260.367188 C 165.359375 260.347656 165.410156 260.324219 165.457031 260.304688 C 170.535156 258.386719 175.714844 256.054688 182.25 252.75 C 185.339844 251.191406 188.433594 249.5625 191.429688 247.988281 C 207.925781 239.320312 223.503906 231.132812 243.601562 229.9375 C 249.9375 229.554688 256.328125 229.953125 262.511719 230.335938 C 270.441406 230.828125 278.644531 231.339844 286.636719 230.167969 C 299.003906 228.347656 310.589844 223.695312 324.199219 215.097656 L 324.382812 214.972656 C 326.746094 213.472656 329.046875 211.933594 331.265625 210.445312 C 338.257812 205.757812 344.863281 201.328125 352.492188 198.671875 C 353.269531 198.398438 354.128906 198.8125 354.402344 199.59375 C 354.675781 200.378906 354.261719 201.230469 353.476562 201.503906 C 346.210938 204.035156 339.765625 208.359375 332.9375 212.9375 C 330.699219 214.4375 328.386719 215.988281 326.019531 217.484375 L 325.828125 217.613281 C 311.820312 226.46875 299.878906 231.25 287.074219 233.136719 C 278.777344 234.355469 270.410156 233.835938 262.328125 233.332031 C 256.234375 232.953125 249.9375 232.5625 243.78125 232.933594 C 224.328125 234.089844 209.027344 242.132812 192.824219 250.644531 C 189.820312 252.226562 186.714844 253.855469 183.601562 255.429688 C 176.992188 258.769531 171.738281 261.132812 166.578125 263.089844 C 166.445312 263.148438 166.308594 263.203125 166.171875 263.253906 L 166.0625 263.292969 C 165.886719 263.359375 165.707031 263.390625 165.53125 263.390625" fill="#7daa7b"/></g><g id="change1_18"><path d="M 222.78125 257.402344 C 217.988281 257.402344 213.503906 257.199219 209.625 257.023438 C 207.566406 256.929688 205.078125 256.753906 202.203125 256.550781 C 196.648438 256.15625 189.734375 255.667969 182.910156 255.589844 C 182.082031 255.578125 181.417969 254.898438 181.425781 254.070312 C 181.4375 253.25 182.105469 252.589844 182.925781 252.589844 C 182.933594 252.589844 182.9375 252.589844 182.945312 252.589844 C 189.859375 252.671875 196.820312 253.160156 202.414062 253.558594 C 205.273438 253.761719 207.738281 253.933594 209.761719 254.027344 C 230.835938 254.976562 254.460938 254.765625 268.054688 240.074219 C 268.617188 239.464844 269.566406 239.429688 270.175781 239.992188 C 270.78125 240.554688 270.820312 241.503906 270.257812 242.109375 C 258.195312 255.148438 238.761719 257.402344 222.78125 257.402344" fill="#7daa7b"/></g><g id="change1_19"><path d="M 280.40625 265.910156 C 279.9375 265.910156 279.476562 265.691406 279.183594 265.28125 C 278.703125 264.605469 278.859375 263.671875 279.53125 263.191406 C 291.582031 254.585938 300.761719 243.199219 309.640625 232.191406 C 314.175781 226.570312 318.867188 220.753906 323.902344 215.34375 C 324.46875 214.734375 325.417969 214.703125 326.023438 215.265625 C 326.628906 215.832031 326.664062 216.78125 326.097656 217.386719 C 321.132812 222.71875 316.480469 228.492188 311.976562 234.074219 C 302.972656 245.242188 293.660156 256.789062 281.277344 265.632812 C 281.011719 265.820312 280.707031 265.910156 280.40625 265.910156" fill="#7daa7b"/></g><g id="change1_20"><path d="M 76.375 352.703125 C 76.292969 352.703125 76.210938 352.699219 76.128906 352.6875 C 75.3125 352.550781 74.757812 351.78125 74.890625 350.964844 C 76.96875 338.246094 80.980469 325.347656 84.859375 312.867188 C 88.515625 301.117188 91.964844 290.019531 93.859375 279.246094 C 97.523438 258.367188 98.734375 241.824219 97.660156 227.179688 C 96.757812 215 93.789062 202.851562 90.917969 191.101562 C 90.289062 188.53125 89.660156 185.960938 89.054688 183.386719 C 87.847656 178.289062 85.867188 172.964844 83.589844 167.035156 C 83.292969 166.261719 83.679688 165.394531 84.453125 165.097656 C 85.226562 164.800781 86.09375 165.1875 86.390625 165.960938 C 88.707031 171.992188 90.726562 177.417969 91.972656 182.695312 C 92.582031 185.261719 93.207031 187.824219 93.832031 190.390625 C 96.734375 202.257812 99.730469 214.53125 100.652344 226.960938 C 101.742188 241.859375 100.523438 258.636719 96.8125 279.765625 C 94.886719 290.726562 91.40625 301.914062 87.722656 313.761719 C 83.875 326.136719 79.898438 338.9375 77.851562 351.445312 C 77.730469 352.183594 77.09375 352.703125 76.375 352.703125" fill="#7daa7b"/></g><g id="change1_21"><path d="M 51.628906 383.859375 C 50.960938 383.859375 50.351562 383.40625 50.175781 382.730469 C 45.261719 363.453125 50.511719 342.847656 55.589844 322.914062 C 57.027344 317.285156 58.378906 311.96875 59.507812 306.691406 C 59.679688 305.882812 60.480469 305.367188 61.289062 305.539062 C 62.097656 305.710938 62.613281 306.511719 62.441406 307.320312 C 61.300781 312.652344 59.941406 317.996094 58.496094 323.65625 C 53.511719 343.222656 48.355469 363.453125 53.085938 381.988281 C 53.289062 382.789062 52.804688 383.605469 52.003906 383.8125 C 51.878906 383.84375 51.753906 383.859375 51.628906 383.859375" fill="#7daa7b"/></g><g id="change1_22"><path d="M 233.492188 287.074219 C 226.679688 287.074219 219.964844 286.394531 213.554688 284.984375 C 206.527344 283.4375 200.148438 280.457031 193.976562 277.574219 C 191.378906 276.359375 188.6875 275.101562 186 273.980469 C 179.761719 271.378906 166.929688 269.523438 157.773438 270.910156 C 156.957031 271.023438 156.1875 270.46875 156.066406 269.648438 C 155.941406 268.832031 156.503906 268.066406 157.324219 267.941406 C 167.289062 266.4375 180.570312 268.464844 187.15625 271.210938 C 189.902344 272.359375 192.617188 273.628906 195.246094 274.855469 C 201.269531 277.671875 207.496094 280.578125 214.199219 282.054688 C 241.371094 288.023438 274.183594 280.515625 295.847656 263.367188 C 304.128906 256.804688 309.945312 248.890625 316.105469 240.515625 C 318.808594 236.84375 321.601562 233.042969 324.636719 229.339844 C 326.761719 226.742188 328.816406 223.972656 330.804688 221.292969 C 334.589844 216.191406 338.5 210.914062 343.167969 206.433594 C 345.855469 203.851562 348.773438 201.382812 352.082031 198.890625 C 352.742188 198.390625 353.683594 198.523438 354.183594 199.1875 C 354.679688 199.847656 354.550781 200.789062 353.886719 201.285156 C 350.671875 203.707031 347.847656 206.097656 345.246094 208.597656 C 340.761719 212.90625 336.925781 218.078125 333.214844 223.078125 C 331.203125 225.785156 329.128906 228.585938 326.957031 231.238281 C 323.972656 234.882812 321.203125 238.648438 318.523438 242.292969 C 312.242188 250.835938 306.308594 258.90625 297.707031 265.71875 C 280.492188 279.351562 256.441406 287.074219 233.492188 287.074219" fill="#7daa7b"/></g><g id="change1_23"><path d="M 1.5 482.929688 C 1.410156 482.929688 1.3125 482.917969 1.21875 482.902344 C 0.40625 482.746094 -0.128906 481.960938 0.0273438 481.144531 C 1.90625 471.351562 5.355469 460.640625 10.289062 449.3125 C 10.652344 448.472656 11.03125 447.632812 11.421875 446.78125 C 17.550781 433.125 25.695312 418.582031 37.035156 401.015625 C 39.433594 397.296875 42.003906 393.453125 44.671875 389.597656 C 44.734375 389.492188 44.835938 389.355469 44.9375 389.214844 L 45.035156 389.082031 C 46.941406 386.3125 48.710938 383.816406 50.421875 381.472656 C 58.210938 370.710938 66.5625 360.191406 75.238281 350.222656 C 80.4375 344.203125 85.894531 338.238281 91.449219 332.488281 C 104.085938 319.378906 117.210938 306.222656 131.570312 292.269531 C 139.503906 284.542969 147.664062 276.714844 156.515625 268.335938 C 159.167969 265.816406 161.835938 263.308594 164.503906 260.796875 C 164.585938 260.710938 164.699219 260.601562 164.808594 260.507812 C 167.359375 258.097656 169.980469 255.632812 172.613281 253.191406 C 186.25 240.429688 200.214844 227.53125 213.71875 215.058594 C 219.867188 209.375 226.027344 203.6875 232.183594 197.988281 C 235.925781 194.519531 239.878906 191.183594 243.703125 187.953125 C 250.550781 182.167969 257.632812 176.183594 263.640625 169.34375 C 268.757812 163.515625 274.554688 157.664062 280.160156 152.007812 C 287.808594 144.292969 295.714844 136.316406 302.28125 128.046875 C 302.398438 127.914062 302.453125 127.839844 302.507812 127.765625 C 302.984375 127.085938 303.921875 126.925781 304.597656 127.402344 C 305.273438 127.878906 305.4375 128.816406 304.960938 129.492188 C 304.84375 129.660156 304.710938 129.828125 304.574219 129.976562 C 297.960938 138.3125 289.996094 146.347656 282.292969 154.121094 C 276.71875 159.746094 270.953125 165.5625 265.894531 171.320312 C 259.742188 178.332031 252.570312 184.386719 245.636719 190.246094 C 241.839844 193.453125 237.914062 196.769531 234.222656 200.1875 C 228.066406 205.890625 221.90625 211.578125 215.753906 217.261719 C 202.253906 229.730469 188.292969 242.628906 174.65625 255.390625 C 172.027344 257.824219 169.414062 260.28125 166.8125 262.738281 C 166.703125 262.835938 166.652344 262.886719 166.601562 262.941406 C 163.894531 265.488281 161.230469 267.992188 158.582031 270.511719 C 149.738281 278.882812 141.585938 286.703125 133.660156 294.421875 C 119.324219 308.351562 106.222656 321.480469 93.605469 334.570312 C 88.089844 340.28125 82.671875 346.207031 77.507812 352.1875 C 68.882812 362.09375 60.589844 372.539062 52.847656 383.238281 C 51.148438 385.5625 49.398438 388.035156 47.488281 390.804688 L 47.359375 390.980469 C 47.292969 391.074219 47.226562 391.164062 47.167969 391.257812 C 44.488281 395.132812 41.941406 398.945312 39.558594 402.644531 C 28.296875 420.078125 20.226562 434.496094 14.152344 448.019531 C 13.769531 448.863281 13.398438 449.6875 13.039062 450.511719 C 8.195312 461.636719 4.808594 472.132812 2.972656 481.710938 C 2.835938 482.429688 2.207031 482.929688 1.5 482.929688" fill="#7daa7b"/></g><g id="change1_24"><path d="M 45.476562 391.238281 L 46.253906 389.953125 L 45.398438 391.1875 C 45.015625 390.957031 44.636719 390.726562 44.253906 390.484375 C 19.28125 374.804688 11.503906 358.910156 9.714844 354.410156 C 0.769531 331.980469 11.378906 303.660156 18.398438 284.921875 C 23.078125 272.4375 29.660156 258.953125 37.957031 244.851562 C 43.289062 235.792969 49.242188 226.546875 56.164062 216.582031 C 56.753906 215.726562 57.347656 214.867188 57.953125 214.007812 C 64.644531 204.464844 71.574219 194.121094 76.902344 183.121094 C 79.769531 177.25 81.941406 171.679688 83.550781 166.085938 C 83.777344 165.289062 84.605469 164.824219 85.40625 165.058594 C 86.203125 165.285156 86.660156 166.117188 86.433594 166.914062 C 84.777344 172.675781 82.542969 178.40625 79.601562 184.433594 C 74.183594 195.617188 67.171875 206.085938 60.40625 215.730469 C 59.804688 216.585938 59.21875 217.4375 58.628906 218.289062 C 51.75 228.195312 45.835938 237.382812 40.542969 246.375 C 32.332031 260.328125 25.828125 273.648438 21.207031 285.976562 C 14.351562 304.28125 3.988281 331.945312 12.503906 353.300781 C 19.238281 370.246094 39.738281 384.105469 45.859375 387.949219 C 46.230469 388.183594 46.589844 388.402344 46.953125 388.621094 L 46.253906 389.953125 L 45.476562 391.238281" fill="#7daa7b"/></g><g id="change1_25"><path d="M 45.90625 391.949219 C 45.433594 391.949219 44.972656 391.730469 44.679688 391.316406 C 44.382812 390.894531 44.101562 390.476562 43.816406 390.058594 C 26.875 364.953125 20.882812 337.171875 27.375 313.835938 C 27.597656 313.039062 28.425781 312.574219 29.222656 312.792969 C 30.019531 313.015625 30.488281 313.84375 30.265625 314.640625 C 24.007812 337.128906 29.855469 364.007812 46.304688 388.378906 C 46.574219 388.78125 46.847656 389.183594 47.128906 389.585938 C 47.609375 390.261719 47.445312 391.195312 46.769531 391.675781 C 46.507812 391.859375 46.207031 391.949219 45.90625 391.949219" fill="#7daa7b"/></g><g id="change1_26"><path d="M 166.550781 260.359375 Z M 215.667969 274.101562 C 209.183594 274.101562 202.507812 273.042969 195.167969 270.980469 C 192.117188 270.117188 189.101562 269.054688 186.1875 268.023438 C 182.960938 266.886719 179.628906 265.707031 176.3125 264.835938 C 174.796875 264.433594 173.15625 264.273438 171.421875 264.105469 C 169.496094 263.917969 167.511719 263.722656 165.640625 263.171875 C 165.488281 263.140625 165.253906 263.078125 165.015625 262.9375 C 164.304688 262.511719 164.070312 261.589844 164.492188 260.878906 C 164.875 260.242188 165.648438 259.992188 166.316406 260.246094 C 166.355469 260.257812 166.394531 260.265625 166.421875 260.273438 C 168.03125 260.761719 169.820312 260.933594 171.710938 261.117188 C 173.488281 261.292969 175.328125 261.472656 177.078125 261.933594 C 180.511719 262.835938 183.902344 264.035156 187.183594 265.195312 C 190.058594 266.210938 193.027344 267.257812 195.980469 268.089844 C 214.53125 273.3125 228.082031 271.949219 245.980469 263.066406 C 246.722656 262.699219 247.621094 263 247.988281 263.742188 C 248.359375 264.484375 248.054688 265.386719 247.3125 265.753906 C 235.972656 271.382812 226.066406 274.101562 215.667969 274.101562" fill="#7daa7b"/></g><g id="change1_27"><path d="M 304.347656 482.949219 C 304.328125 482.949219 304.3125 482.949219 304.289062 482.949219 C 288.746094 482.363281 272.972656 479.234375 257.410156 473.652344 C 238.363281 466.832031 220.574219 456.601562 205.96875 444.070312 C 176.414062 418.722656 134.660156 407.082031 97.007812 413.6875 C 91.035156 414.738281 84.636719 416.390625 77.992188 418.601562 C 64.980469 422.945312 52.488281 428.890625 41.980469 434.132812 C 31.820312 439.191406 23.382812 443.945312 16.1875 448.667969 C 15.496094 449.125 14.566406 448.933594 14.109375 448.238281 C 13.65625 447.546875 13.847656 446.617188 14.542969 446.160156 C 21.835938 441.371094 30.375 436.558594 40.644531 431.449219 C 51.242188 426.160156 63.855469 420.160156 77.042969 415.753906 C 83.832031 413.496094 90.371094 411.808594 96.488281 410.734375 C 135.003906 403.972656 177.703125 415.875 207.921875 441.792969 C 222.25 454.089844 239.714844 464.128906 258.425781 470.828125 C 273.695312 476.308594 289.164062 479.378906 304.40625 479.953125 C 305.234375 479.984375 305.878906 480.679688 305.847656 481.507812 C 305.816406 482.316406 305.152344 482.949219 304.347656 482.949219" fill="#7daa7b"/></g><g clip-path="url(#b)" id="change1_31"><path d="M 207.261719 500.050781 C 177.546875 500.050781 150.496094 494.402344 126.601562 483.183594 C 120.492188 480.3125 114.410156 476.777344 108.527344 473.363281 C 98.535156 467.558594 88.199219 461.554688 77.308594 458.53125 C 70.363281 456.605469 62.804688 455.402344 55.496094 454.234375 C 53.195312 453.867188 50.902344 453.5 48.632812 453.113281 C 45.847656 452.65625 43.402344 452.207031 41.171875 451.742188 C 32.417969 449.9375 23.726562 448.984375 15.351562 448.914062 C 14.488281 448.890625 13.644531 448.894531 12.808594 448.902344 C 12.800781 448.902344 12.792969 448.902344 12.785156 448.902344 C 11.964844 448.902344 11.296875 448.246094 11.285156 447.425781 C 11.273438 446.597656 11.933594 445.917969 12.761719 445.902344 C 13.640625 445.894531 14.53125 445.890625 15.40625 445.917969 C 23.949219 445.988281 32.832031 446.960938 41.78125 448.804688 C 43.972656 449.261719 46.375 449.703125 49.125 450.15625 C 51.398438 450.542969 53.679688 450.90625 55.96875 451.273438 C 63.359375 452.449219 71.003906 453.671875 78.109375 455.640625 C 89.375 458.765625 99.878906 464.867188 110.035156 470.769531 C 115.859375 474.152344 121.886719 477.652344 127.875 480.46875 C 157.246094 494.257812 191.519531 499.488281 229.738281 496.003906 C 253.058594 493.890625 278.003906 488.515625 303.878906 480.027344 C 304.667969 479.765625 305.515625 480.195312 305.773438 480.984375 C 306.03125 481.769531 305.601562 482.617188 304.816406 482.875 C 278.726562 491.4375 253.558594 496.859375 230.011719 498.992188 C 222.269531 499.699219 214.679688 500.050781 207.261719 500.050781" fill="#7daa7b"/></g><g id="change1_28"><path d="M 229.875 499 C 229.640625 499 229.402344 498.945312 229.183594 498.828125 C 225.777344 497.054688 222.355469 495.257812 218.917969 493.457031 C 164.34375 464.816406 107.914062 435.203125 49.320312 453.070312 C 48.527344 453.316406 47.691406 452.863281 47.449219 452.074219 C 47.207031 451.28125 47.652344 450.441406 48.445312 450.199219 C 108.214844 431.976562 165.203125 461.878906 220.3125 490.800781 C 223.746094 492.601562 227.164062 494.394531 230.570312 496.167969 C 231.304688 496.550781 231.589844 497.457031 231.203125 498.191406 C 230.9375 498.707031 230.414062 499 229.875 499" fill="#7daa7b"/></g><g id="change1_29"><path d="M 143.769531 432.289062 C 143.613281 432.289062 143.453125 432.265625 143.296875 432.214844 L 140.175781 431.183594 C 118.457031 423.996094 99.6875 417.777344 77.578125 418.675781 C 76.726562 418.707031 76.050781 418.066406 76.019531 417.238281 C 75.984375 416.410156 76.628906 415.710938 77.457031 415.679688 C 100.117188 414.773438 119.121094 421.058594 141.117188 428.335938 L 144.238281 429.363281 C 145.023438 429.625 145.453125 430.472656 145.191406 431.261719 C 144.984375 431.890625 144.398438 432.289062 143.769531 432.289062" fill="#7daa7b"/></g><g id="change1_30"><path d="M 255.140625 473.808594 C 235.996094 473.808594 218.171875 464.726562 200.90625 455.929688 C 188.789062 449.753906 176.261719 443.371094 163.5 440.277344 C 162.695312 440.082031 162.199219 439.273438 162.394531 438.464844 C 162.589844 437.660156 163.402344 437.171875 164.207031 437.359375 C 177.308594 440.535156 189.996094 447.003906 202.269531 453.253906 C 220.039062 462.308594 238.414062 471.679688 257.847656 470.742188 C 258.664062 470.710938 259.378906 471.339844 259.414062 472.167969 C 259.457031 472.996094 258.816406 473.699219 257.988281 473.738281 C 257.035156 473.785156 256.085938 473.808594 255.140625 473.808594" fill="#7daa7b"/></g></g></svg>